# xmcd
#
# Track frame offsets: 
#        150
#        18225
#        34265
#        57777
#        72480
#        86975
#        108215
#        123900
#        139627
#        157475
#        169860
#        183342
#        194022
#        206737
#        219899
#        236592
#        251272
#        266369
#        279644
#        291809
#        305674
#        321634
#        334769
#        345754
#
# Disc length: 4797 seconds
#
# Revision: 0
# Processed by: cddbd v1.4PL0 Copyright (c) Steve Scherf et al.
# Submitted via: ExactAudioCopy v0.90b4
#
DISCID=6f12bb18
DTITLE=Muddy Waters - Folk Singer [1963] and Brass And The Blues [1968]
DYEAR=1900
DGENRE=Blues
TTITLE0=My Home Is In The Delta
TTITLE1=Long Distance
TTITLE2=My Captain
TTITLE3=Good Morning Little School Girl
TTITLE4=You Gonna Need My Help
TTITLE5=Cold Weather Blues
TTITLE6=Big Leg Woman
TTITLE7=Country Boy
TTITLE8=Feel Like Going Home
TTITLE9=The Same Thing [bonus]
TTITLE10=You Can't Lose What You Never Had [bonus]
TTITLE11=My John The Conqueror Root [bonus]
TTITLE12=Short Dress Woman [bonus]
TTITLE13=Put Me In Your Lay Away [bonus]
TTITLE14=Corine, Corina
TTITLE15=Piney Brown Blues
TTITLE16=Black Night
TTITLE17=Trouble In Mind
TTITLE18=Going Back To Memphis
TTITLE19=Betty And Dupree
TTITLE20=Sweet Little Angel
TTITLE21=Take My Advice
TTITLE22=Trouble
TTITLE23=Hard Loser
EXTD=title 1 =01-14\ntitle 2 =15-24
EXTT0=
EXTT1=
EXTT2=
EXTT3=
EXTT4=
EXTT5=
EXTT6=
EXTT7=
EXTT8=
EXTT9=
EXTT10=
EXTT11=
EXTT12=
EXTT13=
EXTT14=
EXTT15=
EXTT16=
EXTT17=
EXTT18=
EXTT19=
EXTT20=
EXTT21=
EXTT22=
EXTT23=
PLAYORDER=
